<svg xmlns="http://www.w3.org/2000/svg" xmlns:xlink="http://www.w3.org/1999/xlink" viewBox="0 0 38 39"><defs><style>.cls-1{isolation:isolate;}.cls-10,.cls-11,.cls-12,.cls-13,.cls-14,.cls-2,.cls-3,.cls-4,.cls-5,.cls-6,.cls-7,.cls-8,.cls-9{fill-rule:evenodd;}.cls-2{fill:url(#radial-gradient);}.cls-3{fill:url(#radial-gradient-2);}.cls-4{mix-blend-mode:multiply;fill:url(#radial-gradient-3);}.cls-11,.cls-12,.cls-13,.cls-14,.cls-5,.cls-6,.cls-7{mix-blend-mode:screen;}.cls-5{fill:url(#radial-gradient-4);}.cls-6{fill:url(#radial-gradient-5);}.cls-7{fill:url(#radial-gradient-6);}.cls-8{fill:url(#radial-gradient-7);}.cls-9{fill:url(#radial-gradient-8);}.cls-10{fill:url(#radial-gradient-9);}.cls-11,.cls-12,.cls-13,.cls-14{opacity:0.5;}.cls-11{fill:url(#radial-gradient-10);}.cls-12{fill:url(#radial-gradient-11);}.cls-13{fill:url(#radial-gradient-12);}.cls-14{fill:url(#radial-gradient-13);}</style><radialGradient id="radial-gradient" cx="8.15" cy="37.25" r="13.73" gradientUnits="userSpaceOnUse"><stop offset="0" stop-color="#fc8200"/><stop offset="1" stop-color="#e34f00"/></radialGradient><radialGradient id="radial-gradient-2" cx="11.63" cy="10.25" r="30.34" gradientUnits="userSpaceOnUse"><stop offset="0" stop-color="#fcf800"/><stop offset="1" stop-color="#fc9700"/></radialGradient><radialGradient id="radial-gradient-3" cx="12.37" cy="8.91" r="31.59" gradientUnits="userSpaceOnUse"><stop offset="0" stop-color="#fff"/><stop offset="0.1" stop-color="#fffdf9"/><stop offset="0.22" stop-color="#fff7e9"/><stop offset="0.36" stop-color="#ffeccf"/><stop offset="0.51" stop-color="#ffdeaa"/><stop offset="0.67" stop-color="#ffcc7a"/><stop offset="0.84" stop-color="#ffb641"/><stop offset="1" stop-color="#ff9d00"/></radialGradient><radialGradient id="radial-gradient-4" cx="8.03" cy="4.53" r="26.87" gradientUnits="userSpaceOnUse"><stop offset="0" stop-color="#fff261"/><stop offset="0.11" stop-color="#faee5f"/><stop offset="0.23" stop-color="#ede15a"/><stop offset="0.36" stop-color="#d6cb52"/><stop offset="0.5" stop-color="#b7ad46"/><stop offset="0.64" stop-color="#8e8736"/><stop offset="0.78" stop-color="#5c5823"/><stop offset="0.92" stop-color="#23210d"/><stop offset="1"/></radialGradient><radialGradient id="radial-gradient-5" cx="12.38" cy="7.69" r="15.95" gradientUnits="userSpaceOnUse"><stop offset="0" stop-color="#fffacf"/><stop offset="1"/></radialGradient><radialGradient id="radial-gradient-6" cx="17.65" cy="28.45" r="19.11" gradientUnits="userSpaceOnUse"><stop offset="0"/><stop offset="0.17" stop-color="#251b00"/><stop offset="0.54" stop-color="#856100"/><stop offset="1" stop-color="#fb0"/></radialGradient><radialGradient id="radial-gradient-7" cx="3.3" cy="16.92" r="9.48" gradientUnits="userSpaceOnUse"><stop offset="0" stop-color="#fcac00"/><stop offset="1" stop-color="#e36600"/></radialGradient><radialGradient id="radial-gradient-8" cx="50.21" cy="25.57" r="22.7" xlink:href="#radial-gradient-7"/><radialGradient id="radial-gradient-9" cx="30.58" cy="33.08" r="12.07" gradientUnits="userSpaceOnUse"><stop offset="0" stop-color="#fcac00"/><stop offset="1" stop-color="#f60"/></radialGradient><radialGradient id="radial-gradient-10" cx="6.55" cy="31.47" r="6.76" xlink:href="#radial-gradient-4"/><radialGradient id="radial-gradient-11" cx="31.02" cy="31.95" r="7.05" xlink:href="#radial-gradient-4"/><radialGradient id="radial-gradient-12" cx="2.2" cy="14.99" r="4.75" xlink:href="#radial-gradient-4"/><radialGradient id="radial-gradient-13" cx="36.14" cy="14.75" r="6.23" xlink:href="#radial-gradient-4"/></defs><g class="cls-1"><g id="Capa_1" data-name="Capa 1"><path class="cls-2" d="M18.36,5.86a1,1,0,0,0-.83.38c-1.89,2.25-3.66,8.5-5,8.63-3.26.29-8.76.46-10.44.55a11.62,11.62,0,0,0,0,2.76,1,1,0,0,0,.15.39C3.78,21.05,8.44,24.71,8.87,26a67.21,67.21,0,0,0-1,6.94c0,1-.06,2,0,3a1.07,1.07,0,0,0,1.34,1c2.85-.71,7.76-4,9.15-4s6.29,3.31,9.14,4a1.07,1.07,0,0,0,1.34-1c.07-1,0-2,0-3a67.21,67.21,0,0,0-1-6.94c.43-1.31,5.09-5,6.65-7.45a1,1,0,0,0,.15-.39,11.62,11.62,0,0,0,0-2.76c-1.68-.09-7.18-.26-10.44-.55-1.38-.13-3.15-6.38-5-8.63a1,1,0,0,0-.82-.38Z"/><path class="cls-3" d="M27.5,34.35a1,1,0,0,0,.9-.18,1.05,1.05,0,0,0,.44-.8c.2-2.92-1.42-8.62-1-9.93s5.09-5,6.65-7.46A1.08,1.08,0,0,0,34,14.41c-2.72-1.1-8.64-1.31-9.76-2.13s-3.15-6.37-5-8.62a1.07,1.07,0,0,0-1.65,0c-1.89,2.25-3.92,7.81-5,8.62s-7,1-9.76,2.13A1.08,1.08,0,0,0,2.22,16c1.56,2.49,6.22,6.14,6.65,7.46s-1.2,7-1,9.93a1.05,1.05,0,0,0,.44.8,1,1,0,0,0,.9.18c2.85-.72,7.76-4,9.15-4s6.29,3.3,9.14,4Z"/><path class="cls-4" d="M33.38,15.84c-3.29,2.36-5.14,3.78-8,5.67a1.28,1.28,0,0,0-.63,1.24c.85,2.74,3.25,7.12,3.42,9.85.11,1.61-1.27,1.12-2.07.77-2.79-1.19-4.66-2.88-7.33-4.25a2.32,2.32,0,0,0-2.63.22c-1.61,1.05-4.48,3.62-6.87,4.37-.67.21-1.09.16-1.36-.15a1.09,1.09,0,0,0,1.31.79c2.85-.72,7.76-4,9.15-4s6.29,3.3,9.14,4a1,1,0,0,0,.9-.18,1.05,1.05,0,0,0,.44-.8c.2-2.92-1.42-8.62-1-9.93s5.09-5,6.65-7.46A1.08,1.08,0,0,0,34,14.41c-2.72-1.1-8.64-1.31-9.76-2.13s-3.15-6.37-5-8.62a1.07,1.07,0,0,0-1.65,0,10.56,10.56,0,0,0-.89,1.26c.82-.86,1.67-1.39,2.44-.2a29.63,29.63,0,0,1,2.79,6.82c.48,1.4.76,2,3.51,2.16,3.15.22,5.76.43,7.64.75,1,.17,1.06.9.36,1.39Z"/><path class="cls-5" d="M16.54,5.56C15.65,7.22,14.87,9,14,10.71c-.71,1.44-1,2.29-2.74,2.59-2.2.38-4.44.44-6.64.8-2.38.38-2.94.92-1.21,2.83,1,1.13,5.71,5.38,6,6.42S9.22,26,9.18,27c0,.51.17,1.25,1,.33,6.47-7.14,8.11-8.47,17.52-11.61,1-.33,2.05-.58,3.07-.89.29-.09.67-.37-.17-.49-2.94-.4-5.3-.08-7.84-.31-1.14-.1-1.86-1.47-2.21-2.42-.74-2-1.13-4.13-1.84-6.15-.55-1.58-1.57-1-2.17.1Z"/><path class="cls-6" d="M9,14.87c-.6-.12-.45-.75.11-.88.9-.21,1.84-.26,2.74-.47a2.6,2.6,0,0,0,2-1.64c1-2,1.94-4.56,3-6.32.37-.64.79-.54.69.17a48.08,48.08,0,0,1-1.49,6.67c-.32,1.13-.68,2.35-2.24,2.54A21,21,0,0,1,9,14.87Zm-2.22-.73a14.17,14.17,0,0,0-3,.53c-1,.33-.75.54.11.58a21.18,21.18,0,0,0,2.76,0c1.29-.09,1.11-1.16.13-1.09Z"/><path class="cls-7" d="M25.31,31.69c-.42.18-1.45.41-.2,1.09a8.13,8.13,0,0,0,1.67.68C28,33.81,28,32.92,27.85,32a29,29,0,0,0-1.92-5.55c-.34-.78-.77-1.19-.63.05.16,1.41.41,2.81.55,4.22.07.64,0,.73-.54,1Z"/><path class="cls-8" d="M8.77,25.81a6.89,6.89,0,0,0,.1-2.37c-.43-1.32-5.09-5-6.65-7.46a1.07,1.07,0,0,1-.17-.56,11.62,11.62,0,0,0,0,2.76,1,1,0,0,0,.15.39C3.7,20.93,8,24.35,8.77,25.81Z"/><path class="cls-9" d="M34.49,16c-1.56,2.49-6.22,6.14-6.65,7.46a6.89,6.89,0,0,0,.1,2.37c.78-1.46,5.07-4.88,6.55-7.24a1,1,0,0,0,.15-.39,11.62,11.62,0,0,0,0-2.76,1.07,1.07,0,0,1-.17.56Z"/><path class="cls-10" d="M27.5,34.35c-2.85-.72-7.76-4-9.14-4,.43.26.43,2.25,0,2.58,1.38,0,6.29,3.31,9.14,4a1.07,1.07,0,0,0,1.34-1c.06-1,0-2,0-2.93,0,.12,0,.23,0,.34a1.05,1.05,0,0,1-.44.8,1,1,0,0,1-.9.18Z"/><path class="cls-11" d="M9.66,36.81a6.42,6.42,0,0,1,0-2.58l-.42.12a1.09,1.09,0,0,1-1.31-.79,1.08,1.08,0,0,1,0-.19c0-.11,0-.22,0-.34,0,1-.05,2,0,2.93a1.07,1.07,0,0,0,1.34,1l.45-.12Z"/><path class="cls-12" d="M27.05,36.81a6.42,6.42,0,0,0,0-2.58l.42.12a1.09,1.09,0,0,0,1.31-.79,1.08,1.08,0,0,0,0-.19c0-.11,0-.22,0-.34,0,1,0,2,0,2.93a1.07,1.07,0,0,1-1.34,1l-.45-.12Z"/><path class="cls-13" d="M3.25,19.93c-.34-.84-.37-2.59,0-2.56A11.43,11.43,0,0,1,2.22,16a1.07,1.07,0,0,1-.17-.56,11.62,11.62,0,0,0,0,2.76,1,1,0,0,0,.15.39,12.84,12.84,0,0,0,1,1.36Z"/><path class="cls-14" d="M33.46,19.93c.34-.84.37-2.59,0-2.56A11.43,11.43,0,0,0,34.49,16a1.07,1.07,0,0,0,.17-.56,11.62,11.62,0,0,1,0,2.76,1,1,0,0,1-.15.39,12.84,12.84,0,0,1-1,1.36Z"/></g></g></svg>