<svg id="Capa_1" data-name="Capa 1" xmlns="http://www.w3.org/2000/svg" viewBox="0 0 30.7 31.51"><defs><style>.cls-1{fill:#fdfdfd;}</style></defs><path class="cls-1" d="M18.35,19.91c1.42-1.1,2.78-2.17,4.17-3.2a1.38,1.38,0,0,0,.64-1.27c0-2,0-4,0-6,0-.54-.16-.73-.71-.73q-6.68,0-13.36,0c-.54,0-.73.17-.72.72,0,2.05,0,4.11,0,6.16a1.39,1.39,0,0,0,.48.89c1.42,1.15,2.88,2.25,4.38,3.42L4.75,26.2V13.3l2.49,1.9c.7-1.61-.73-2-1.53-2.79.14-.13.2-.25.3-.3,1.25-.59,1.48-1.62,1.38-2.89-.09-1.05.46-1.61,1.52-1.48A6.37,6.37,0,0,0,14.2,5.92c1.8-1.57,1.46-1.54,3.23,0a6.29,6.29,0,0,0,5.22,1.83,1.19,1.19,0,0,1,1.47,1.44,2.62,2.62,0,0,0,1.48,3,2.71,2.71,0,0,1,.31.3c-.66.88-2.35,1.14-1.63,2.86l2.48-1.89V26.2Z"/><path class="cls-1" d="M5.63,27l8.61-6.45c1,1.28,2,1.46,3.09,0L25.88,27Z"/><path class="cls-1" d="M17.29,16.8c.45.55.24.8-.29,1a3.78,3.78,0,0,1-4.36-1.21,4.34,4.34,0,0,1,.42-5.12,3.89,3.89,0,0,1,4.26-1.21,3.36,3.36,0,0,1,1.59,5.13,1.52,1.52,0,0,1-2.48.18,6.25,6.25,0,0,1-.6.4,1.41,1.41,0,0,1-2.16-1.29A2.74,2.74,0,0,1,17.29,12a.76.76,0,0,1,.36.62c0,.66-.22,1.3-.31,2a2.43,2.43,0,0,0,.14.67c.23-.11.53-.16.67-.34A2.61,2.61,0,0,0,16.9,11a3,3,0,0,0-3.31,1.18A3.67,3.67,0,0,0,13,15.12a2.64,2.64,0,0,0,3.52,1.93C16.79,17,17,16.9,17.29,16.8Zm-.55-4c-1.12-.07-1.81.39-2,1.26a.76.76,0,0,0,0,.15.73.73,0,0,0,1.15.6A.49.49,0,0,0,16,14.7,10.54,10.54,0,0,0,16.74,12.82Z"/></svg>