<svg id="Capa_1" data-name="Capa 1" xmlns="http://www.w3.org/2000/svg" viewBox="0 0 30.7 31.51"><defs><style>.cls-1{fill:#fdfdfd;}</style></defs><path class="cls-1" d="M10.08,16A12.59,12.59,0,0,0,16,21.48c.11-.18.22-.36.32-.54s.24-.39.34-.6a.88.88,0,0,1,.9-.48,17.2,17.2,0,0,1,1.76.18c.89.15,1.78.35,2.66.55a1.64,1.64,0,0,1,1.35,1.48,2,2,0,0,1-.27,1.32,4.3,4.3,0,0,1-4,2.36,8.5,8.5,0,0,1-3.64-.83,19.71,19.71,0,0,1-7.23-5.36A11.12,11.12,0,0,1,5.7,14.71,6,6,0,0,1,6,11,4,4,0,0,1,8.23,8.73a2.05,2.05,0,0,1,2.12.43,1.5,1.5,0,0,1,.33.59,27.84,27.84,0,0,1,.93,4.14c.13,1.13,0,1.16-.86,1.7C10.54,15.72,10.32,15.83,10.08,16Z"/><path class="cls-1" d="M15.65,5.75a11.25,11.25,0,0,1,9.19,6,11.13,11.13,0,0,1,1.23,3.81.59.59,0,0,1-.49.74.6.6,0,0,1-.67-.57,10.09,10.09,0,0,0-8.4-8.64c-.31,0-.62-.09-.93-.11s-.68-.27-.66-.64S15.21,5.74,15.65,5.75Z"/><path class="cls-1" d="M22.91,15.63a.59.59,0,0,1-.55.59.61.61,0,0,1-.62-.51,9.47,9.47,0,0,0-.42-1.47,7,7,0,0,0-5.63-4.41l-.24,0a.59.59,0,0,1-.54-.64.56.56,0,0,1,.66-.52,11,11,0,0,1,1.83.41,8.12,8.12,0,0,1,5.49,6.41s0,.07,0,.11Z"/><path class="cls-1" d="M19.9,15.73a.59.59,0,0,1-.48.58.57.57,0,0,1-.67-.4,4.2,4.2,0,0,0-.53-1.32,4,4,0,0,0-2.78-1.83.58.58,0,0,1-.56-.67.59.59,0,0,1,.75-.48,5.08,5.08,0,0,1,4.21,3.84,1.74,1.74,0,0,1,.05.22A.13.13,0,0,1,19.9,15.73Z"/></svg>